#!OML:ASF H:\Not Pregnant\Project 1\Capture day 1\Session 1\non-pregnant.ASF
:FULLY-SPECIFIED
:DEGREES
674
root -8.04666 16.6548 -25.948 -164.872 181.368 -184.23
lowerback -4.56249 -1.33906 0.875414
upperback -10.5162 -1.72909 1.34654
thorax -8.48151 -0.872304 0.983864
lowerneck 21.6682 -10.663 -32.2137
upperneck -12.262 -20.2701 38.0098
head 1.05942 -12.2633 19.2375
rclavicle -1.18277e-014 -1.78906e-015
rhumerus -43.6919 2.93897 -86.5247
rradius 30.1929
rwrist -7.93645
rhand -19.8726 -16.7755
rfingers 7.12502
rthumb 6.46278 -46.6569
lclavicle -1.18277e-014 -1.78906e-015
lhumerus -50.4548 -1.12192 87.054
lradius 74.0391
lwrist 53.9231
lhand -28.1875 -24.0859
lfingers 7.12502
lthumb -1.56696 5.88805
rfemur -24.7701 1.18496 28.0137
rtibia 33.9099
rfoot -23.4906 15.8364
rtoes -7.44083
lfemur -25.6236 16.0031 -20.1733
ltibia 64.8018
lfoot 0.602558 1.80902
ltoes -42.2383
675
root -8.03917 16.6567 -25.8991 -165.027 181.372 -184.837
lowerback -4.0452 -1.19509 1.67362
upperback -10.4155 -1.51302 1.41667
thorax -8.69487 -0.824734 0.618937
lowerneck 21.7153 -10.7725 -32.0965
upperneck -12.5922 -20.3431 38.2456
head 1.02102 -12.3294 19.3302
rclavicle 6.85807e-015 -2.38542e-015
rhumerus -44.2289 2.4761 -85.8606
rradius 29.5323
rwrist -6.76819
rhand -19.8733 -16.735
rfingers 7.12502
rthumb 6.46217 -46.6164
lclavicle 6.85807e-015 -2.38542e-015
lhumerus -50.7216 -1.22423 87.3378
lradius 76.8137
lwrist 54.0378
lhand -27.6923 -23.7416
lfingers 7.12502
lthumb -1.08877 6.23541
rfemur -23.8519 0.870885 28.6936
rtibia 32.9476
rfoot -23.5577 16.2331
rtoes -6.798
lfemur -27.5231 15.922 -19.1354
ltibia 68.129
lfoot 0.837559 0.51144
ltoes -41.2984
676
root -8.03094 16.6579 -25.8509 -165.208 181.371 -185.464
lowerback -3.48515 -1.04821 2.49027
upperback -10.2963 -1.28196 1.48709
thorax -8.9113 -0.772277 0.241367
lowerneck 21.7515 -10.8993 -31.9672
upperneck -12.9204 -20.4336 38.4877
head 0.992086 -12.4053 19.4174
rclavicle 9.64106e-015 2.38542e-015
rhumerus -44.8047 2.16047 -85.3136
rradius 28.9755
rwrist -5.93683
rhand -19.7516 -16.7392
rfingers 7.12502
rthumb 6.57961 -46.617
lclavicle 9.64106e-015 2.38542e-015
lhumerus -50.9382 -1.33625 87.6405
lradius 79.6172
lwrist 53.9892
lhand -27.1597 -23.3445
lfingers 7.12502
lthumb -0.574367 6.63446
rfemur -22.8937 0.611108 29.3791
rtibia 31.9596
rfoot -23.5628 16.5887
rtoes -6.17349
lfemur -29.4446 15.8748 -18.0909
ltibia 71.4342
lfoot 0.737494 -0.589399
ltoes -40.5533
677
root -8.02186 16.6578 -25.803 -165.421 181.382 -186.08
lowerback -2.86565 -0.899272 3.2895
upperback -10.1697 -1.03605 1.55176
thorax -9.15164 -0.712649 -0.135262
lowerneck 21.7582 -11.044 -31.8307
upperneck -13.2015 -20.5485 38.7237
head 0.988544 -12.4918 19.4873
rclavicle -3.72721e-015 1.59028e-015
rhumerus -45.4298 1.98808 -84.8852
rradius 28.5119
rwrist -5.46723
rhand -19.5154 -16.817
rfingers 7.12502
rthumb 6.80764 -46.6876
lclavicle -3.72721e-015 1.59028e-015
lhumerus -51.1331 -1.45375 87.9651
lradius 82.4361
lwrist 53.7696
lhand -26.6013 -22.9043
lfingers 7.12502
lthumb -0.0350504 7.07549
rfemur -21.9098 0.402704 30.0349
rtibia 30.9832
rfoot -23.5117 16.9056
rtoes -5.64376
lfemur -31.3724 15.8689 -17.0792
ltibia 74.696
lfoot 0.389472 -1.44403
ltoes -39.8919
678
root -8.01218 16.6559 -25.7557 -165.662 181.412 -186.662
lowerback -2.20573 -0.752025 4.04563
upperback -10.0294 -0.781425 1.60717
thorax -9.39666 -0.646935 -0.501417
lowerneck 21.7249 -11.2027 -31.698
upperneck -13.4304 -20.6838 38.9611
head 1.01486 -12.5865 19.5445
rclavicle 1.87355e-014 -1.03368e-014
rhumerus -46.062 1.93314 -84.5661
rradius 28.0903
rwrist -5.31183
rhand -19.1744 -16.8987
rfingers 7.12502
rthumb 7.13685 -46.7583
lclavicle 1.87355e-014 -1.03368e-014
lhumerus -51.2873 -1.57837 88.3092
lradius 85.2434
lwrist 53.3934
lhand -26.0198 -22.4101
lfingers 7.12502
lthumb 0.526654 7.56903
rfemur -20.9236 0.248323 30.6387
rtibia 30.051
rfoot -23.4182 17.1703
rtoes -5.25404
lfemur -33.3082 15.9042 -16.1288
ltibia 77.8953
lfoot -0.0873468 -2.06222
ltoes -39.163
679
root -8.00193 16.6526 -25.7084 -165.924 181.463 -187.178
lowerback -1.52522 -0.611428 4.72444
upperback -9.87321 -0.528084 1.64687
thorax -9.63149 -0.577246 -0.845204
lowerneck 21.6294 -11.3767 -31.5689
upperneck -13.6019 -20.8371 39.1992
head 1.07515 -12.6861 19.5853
rclavicle -5.61567e-015 9.14409e-015
rhumerus -46.6859 1.97579 -84.3453
rradius 27.6906
rwrist -5.38682
rhand -18.7494 -16.9377
rfingers 7.12502
rthumb 7.54703 -46.7831
lclavicle -5.61567e-015 9.14409e-015
lhumerus -51.3954 -1.70587 88.6695
lradius 88.0167
lwrist 52.8781
lhand -25.4329 -21.9081
lfingers 7.12502
lthumb 1.09348 8.06887
rfemur -19.9587 0.132395 31.1564
rtibia 29.1894
rfoot -23.2904 17.3876
rtoes -5.03863
lfemur -35.253 15.9703 -15.2817
ltibia 81.0039
lfoot -0.595083 -2.48369
ltoes -38.2669
680
root -7.99078 16.6488 -25.6597 -166.194 181.553 -187.599
lowerback -0.853288 -0.472081 5.29951
upperback -9.70461 -0.274204 1.66158
thorax -9.84206 -0.50047 -1.16249
lowerneck 21.4807 -11.5633 -31.4426
upperneck -13.7219 -21.0058 39.4368
head 1.1651 -12.7895 19.611
rclavicle 4.37326e-015 1.98785e-015
rhumerus -47.2891 2.07207 -84.1955
rradius 27.2817
rwrist -5.57976
rhand -18.246 -16.9013
rfingers 7.12502
rthumb 8.03295 -46.7286
lclavicle 4.37326e-015 1.98785e-015
lhumerus -51.4676 -1.84015 89.0473
lradius 90.7414
lwrist 52.2502
lhand -24.8476 -21.4229
lfingers 7.12502
lthumb 1.65878 8.55037
rfemur -19.0304 0.0350092 31.5544
rtibia 28.4146
rfoot -23.1926 17.5855
rtoes -4.86528
lfemur -37.194 16.071 -14.5822
ltibia 83.9885
lfoot -1.10498 -2.75833
ltoes -37.2862
681
root -7.97896 16.6454 -25.6089 -166.453 181.67 -187.909
lowerback -0.21254 -0.336779 5.75365
upperback -9.53777 -0.0285591 1.6484
thorax -10.0311 -0.419547 -1.44603
lowerneck 21.3108 -11.7482 -31.3223
upperneck -13.8139 -21.1752 39.6765
head 1.26806 -12.8916 19.6335
rclavicle 1.80397e-014 -3.18055e-015
rhumerus -47.8764 2.18279 -84.0907
rradius 26.838
rwrist -5.75983
rhand -17.6796 -16.7553
rfingers 7.12502
rthumb 8.57951 -46.561
lclavicle 1.80397e-014 -3.18055e-015
lhumerus -51.5252 -1.98353 89.4409
lradius 93.402
lwrist 51.5593
lhand -24.2715 -21.0136
lfingers 7.12502
lthumb 2.21519 8.95463
rfemur -18.1581 -0.0534433 31.8188
rtibia 27.726
rfoot -23.1212 17.7651
rtoes -4.72123
lfemur -39.1442 16.1884 -14.0542
ltibia 86.8195
lfoot -1.63514 -2.95925
ltoes -36.3129
682
root -7.96655 16.6432 -25.5558 -166.683 181.815 -188.112
lowerback 0.373377 -0.202769 6.09087
upperback -9.3753 0.20794 1.60845
thorax -10.188 -0.334713 -1.69646
lowerneck 21.1056 -11.9321 -31.2003
upperneck -13.8579 -21.3439 39.9043
head 1.38744 -12.9892 19.6422
rclavicle -4.07509e-015 -3.97569e-016
rhumerus -48.4408 2.27526 -84.006
rradius 26.363
rwrist -5.82543
rhand -17.0532 -16.5091
rfingers 7.12502
rthumb 9.18401 -46.2891
lclavicle -4.07509e-015 -3.97569e-016
lhumerus -51.5675 -2.13336 89.845
lradius 95.9824
lwrist 50.8293
lhand -23.6766 -20.6992
lfingers 7.12502
lthumb 2.78972 9.26232
rfemur -17.3557 -0.136681 31.9563
rtibia 27.1095
rfoot -23.0743 17.9413
rtoes -4.60587
lfemur -41.1186 16.3208 -13.7027
ltibia 89.477
lfoot -2.17409 -3.14004
ltoes -35.4204
683
root -7.95334 16.6428 -25.499 -166.886 181.971 -188.22
lowerback 0.896162 -0.0731289 6.33082
upperback -9.22803 0.429616 1.54531
thorax -10.3214 -0.250352 -1.91952
lowerneck 20.9163 -12.0963 -31.0876
upperneck -13.8845 -21.4963 40.127
head 1.5029 -13.0789 19.6568
rclavicle -1.88845e-015 6.36111e-015
rhumerus -48.9965 2.30731 -83.9029
rradius 25.8304
rwrist -5.64063
rhand -16.3736 -16.1311
rfingers 7.12502
rthumb 9.83974 -45.8812
lclavicle -1.88845e-015 6.36111e-015
lhumerus -51.6316 -2.28033 90.2563
lradius 98.4711
lwrist 50.0749
lhand -23.0556 -20.5004
lfingers 7.12502
lthumb 3.38941 9.45242
rfemur -16.5978 -0.238031 31.9825
rtibia 26.5378
rfoot -23.0502 18.1255
rtoes -4.50773
lfemur -43.0954 16.4518 -13.5127
ltibia 91.9397
lfoot -2.7047 -3.33792
ltoes -34.6369
684
root -7.93935 16.6439 -25.4385 -167.058 182.124 -188.275
lowerback 1.34841 0.0491582 6.51655
upperback -9.09527 0.633811 1.47339
thorax -10.4277 -0.170342 -2.12259
lowerneck 20.7474 -12.2361 -30.9861
upperneck -13.9096 -21.6235 40.3437
head 1.60598 -13.1563 19.6814
rclavicle -2.01766e-014 -1.98785e-015
rhumerus -49.5525 2.2782 -83.7672
rradius 25.2715
rwrist -5.17253
rhand -15.6472 -15.6525
rfingers 7.12502
rthumb 10.5405 -45.3682
lclavicle -2.01766e-014 -1.98785e-015
lhumerus -51.7118 -2.41302 90.6679
lradius 100.846
lwrist 49.3036
lhand -22.3665 -20.4194
lfingers 7.12502
lthumb 4.0549 9.52174
rfemur -15.8718 -0.356687 31.9467
rtibia 25.9807
rfoot -23.038 18.311
rtoes -4.45848
lfemur -45.0814 16.5793 -13.4381
ltibia 94.2057
lfoot -3.21518 -3.57424
ltoes -34.0009
685
root -7.92426 16.6463 -25.3736 -167.207 182.259 -188.312
lowerback 1.73192 0.164566 6.69549
upperback -8.97879 0.824205 1.39852
thorax -10.5107 -0.096567 -2.32528
lowerneck 20.615 -12.3456 -30.8937
upperneck -13.9268 -21.7215 40.5476
head 1.69228 -13.2203 19.7165
rclavicle -5.96354e-016 1.23246e-014
rhumerus -50.1225 2.16081 -83.5792
rradius 24.713
rwrist -4.40827
rhand -14.8754 -15.1746
rfingers 7.12502
rthumb 11.2849 -44.851
lclavicle -5.96354e-016 1.23246e-014
lhumerus -51.827 -2.5342 91.0782
lradius 103.1
lwrist 48.5231
lhand -21.5992 -20.4497
lfingers 7.12502
lthumb 4.79576 9.47599
rfemur -15.148 -0.506614 31.8883
rtibia 25.4098
rfoot -23.0367 18.5091
rtoes -4.43841
lfemur -47.0593 16.6936 -13.4355
ltibia 96.2704
lfoot -3.69758 -3.85677
ltoes -33.5287
